<svg preserveAspectRatio="none" width="100%" height="100%" overflow="visible" style="display: block;" viewBox="0 0 32 32" fill="none" xmlns="http://www.w3.org/2000/svg">
<g id="copy-svgrepo-com 1">
<path id="Vector" d="M22.1305 10.646C21.8598 9.99264 21.3406 9.47351 20.6873 9.20285C20.1971 8.99987 19.5759 8.99987 18.3334 8.99987H14.3334C11.8193 8.99987 10.5622 8.99987 9.78113 9.78092C9.00008 10.562 9.00008 11.819 9.00008 14.3332V18.3332C9.00008 19.5757 9.00008 20.1969 9.20306 20.6871C9.47372 21.3404 9.99285 21.8596 10.6463 22.1303" stroke="var(--stroke-0, #222222)" stroke-width="1.8617"/>
<path id="Vector_2" d="M24 13.3334H16C14.5272 13.3334 13.3333 14.5273 13.3333 16V24C13.3333 25.4728 14.5272 26.6667 16 26.6667H24C25.4728 26.6667 26.6667 25.4728 26.6667 24V16C26.6667 14.5273 25.4728 13.3334 24 13.3334Z" stroke="var(--stroke-0, #222222)" stroke-width="1.8617"/>
</g>
</svg>
