<svg preserveAspectRatio="none" width="100%" height="100%" overflow="visible" style="display: block;" viewBox="0 0 11.7609 11.5002" fill="none" xmlns="http://www.w3.org/2000/svg">
<g id="Display 3">
<path id="Vector" d="M9.2246 0.981702L9.53993 0.301212L9.2246 0.981702ZM10.2939 1.92566L10.93 1.52836V1.52836L10.2939 1.92566ZM1.467 1.92566L0.830874 1.52836L0.830874 1.52836L1.467 1.92566ZM2.5363 0.981702L2.22097 0.301212L2.5363 0.981702ZM1.99514 8.43363L2.36032 7.77854V7.77854L1.99514 8.43363ZM0.894651 7.18702L0.199324 7.46813L0.894651 7.18702ZM9.76576 8.43363L9.40058 7.77854V7.77854L9.76576 8.43363ZM10.8663 7.18702L11.5616 7.46813L10.8663 7.18702ZM3.69855 10.0224C3.2967 10.1229 3.05238 10.5301 3.15284 10.9319C3.25331 11.3337 3.66051 11.5781 4.06235 11.4776L3.88045 10.75L3.69855 10.0224ZM4.66777 10.5532L4.48587 9.82556H4.48587L4.66777 10.5532ZM7.09313 10.5532L7.27503 9.82556V9.82556L7.09313 10.5532ZM7.69855 11.4776C8.10039 11.5781 8.5076 11.3337 8.60806 10.9319C8.70852 10.5301 8.4642 10.1229 8.06235 10.0224L7.88045 10.75L7.69855 11.4776ZM6.63045 8.75C6.63045 8.33579 6.29466 8 5.88045 8C5.46624 8 5.13045 8.33579 5.13045 8.75H5.88045H6.63045ZM5.88045 10.4039V11.1539V11.1539V10.4039ZM6.84932 8.75V8H4.91158V8.75V9.5H6.84932V8.75ZM4.91158 0.750001V1.5H6.84932V0.750001V5.36442e-07H4.91158V0.750001ZM6.84932 0.750001V1.5C7.48597 1.5 7.92103 1.50052 8.26052 1.52674C8.5907 1.55223 8.7728 1.59895 8.90927 1.66219L9.2246 0.981702L9.53993 0.301212C9.17638 0.132749 8.79593 0.0636174 8.37602 0.0311896C7.96542 -0.000518262 7.46285 5.36442e-07 6.84932 5.36442e-07V0.750001ZM10.8184 4.25386L11.5626 4.16084C11.4865 3.55204 11.4247 3.05329 11.3423 2.6498C11.2581 2.23715 11.1423 1.86821 10.93 1.52836L10.2939 1.92566L9.65778 2.32297C9.73746 2.45054 9.8064 2.62544 9.87266 2.9499C9.94078 3.28352 9.99526 3.71516 10.0742 4.34689L10.8184 4.25386ZM9.2246 0.981702L8.90927 1.66219C9.21765 1.80509 9.47774 2.03469 9.65778 2.32297L10.2939 1.92566L10.93 1.52836C10.5957 0.993003 10.1126 0.566595 9.53993 0.301212L9.2246 0.981702ZM0.942468 4.25386L1.68668 4.34689C1.76564 3.71516 1.82012 3.28352 1.88824 2.9499C1.9545 2.62544 2.02344 2.45054 2.10312 2.32297L1.467 1.92566L0.830874 1.52836C0.618619 1.86821 0.502833 2.23715 0.418571 2.6498C0.33618 3.05329 0.274359 3.55204 0.19826 4.16084L0.942468 4.25386ZM4.91158 0.750001V5.36442e-07C4.29805 5.36442e-07 3.79548 -0.000518262 3.38488 0.0311896C2.96497 0.0636174 2.58452 0.132749 2.22097 0.301212L2.5363 0.981702L2.85163 1.66219C2.9881 1.59895 3.1702 1.55223 3.50038 1.52674C3.83987 1.50052 4.27493 1.5 4.91158 1.5V0.750001ZM1.467 1.92566L2.10312 2.32297C2.28316 2.03469 2.54326 1.80509 2.85163 1.66219L2.5363 0.981702L2.22097 0.301212C1.64827 0.566595 1.16524 0.993004 0.830874 1.52836L1.467 1.92566ZM4.91158 8.75V8C4.11548 8 3.56588 7.99936 3.14285 7.96318C2.72739 7.92765 2.51078 7.86242 2.36032 7.77854L1.99514 8.43363L1.62996 9.08872C2.04702 9.32121 2.50565 9.41417 3.01504 9.45773C3.51688 9.50064 4.14173 9.5 4.91158 9.5V8.75ZM0.942468 4.25386L0.19826 4.16084C0.102771 4.92474 0.0246305 5.54469 0.00497019 6.04797C-0.0149864 6.55883 0.0203594 7.02545 0.199324 7.46813L0.894651 7.18702L1.58998 6.90592C1.52541 6.74621 1.48755 6.52318 1.50383 6.10652C1.5204 5.68228 1.58793 5.13684 1.68668 4.34689L0.942468 4.25386ZM1.99514 8.43363L2.36032 7.77854C2.01149 7.58409 1.73966 7.27617 1.58998 6.90592L0.894651 7.18702L0.199324 7.46813C0.477313 8.15575 0.982132 8.72759 1.62996 9.08872L1.99514 8.43363ZM6.84932 8.75V9.5C7.61917 9.5 8.24403 9.50064 8.74586 9.45773C9.25525 9.41417 9.71389 9.32121 10.1309 9.08872L9.76576 8.43363L9.40058 7.77854C9.25012 7.86242 9.03351 7.92765 8.61805 7.96318C8.19502 7.99936 7.64542 8 6.84932 8V8.75ZM10.8184 4.25386L10.0742 4.34689C10.173 5.13684 10.2405 5.68228 10.2571 6.10652C10.2734 6.52318 10.2355 6.74621 10.1709 6.90592L10.8663 7.18702L11.5616 7.46813C11.7405 7.02545 11.7759 6.55883 11.7559 6.04797C11.7363 5.54469 11.6581 4.92474 11.5626 4.16084L10.8184 4.25386ZM9.76576 8.43363L10.1309 9.08872C10.7788 8.72759 11.2836 8.15575 11.5616 7.46813L10.8663 7.18702L10.1709 6.90592C10.0212 7.27617 9.74941 7.58409 9.40058 7.77854L9.76576 8.43363ZM3.88045 10.75L4.06235 11.4776L4.84967 11.2808L4.66777 10.5532L4.48587 9.82556L3.69855 10.0224L3.88045 10.75ZM7.09313 10.5532L6.91123 11.2808L7.69855 11.4776L7.88045 10.75L8.06235 10.0224L7.27503 9.82556L7.09313 10.5532ZM5.88045 10.25H6.63045V8.75H5.88045H5.13045V10.25H5.88045ZM4.66777 10.5532L4.84967 11.2808C5.18806 11.1962 5.53425 11.1539 5.88045 11.1539V10.4039V9.65388C5.41207 9.65388 4.94369 9.71111 4.48587 9.82556L4.66777 10.5532ZM5.88045 10.4039V11.1539C6.22665 11.1539 6.57284 11.1962 6.91123 11.2808L7.09313 10.5532L7.27503 9.82556C6.81722 9.71111 6.34883 9.65388 5.88045 9.65388V10.4039ZM5.88045 10.25H5.13045V10.4039H5.88045H6.63045V10.25H5.88045Z" fill="var(--stroke-0, #FAFAFA)"/>
</g>
</svg>
