<svg preserveAspectRatio="none" width="100%" height="100%" overflow="visible" style="display: block;" viewBox="0 0 9.75 12.5388" fill="none" xmlns="http://www.w3.org/2000/svg">
<g id="Location" opacity="0.6">
<g id="Vector">
<path fill-rule="evenodd" clip-rule="evenodd" d="M4.875 3.34286C3.72112 3.34286 2.78571 4.27826 2.78571 5.43214C2.78571 6.58602 3.72112 7.52143 4.875 7.52143C6.02888 7.52143 6.96429 6.58602 6.96429 5.43214C6.96429 4.27826 6.02888 3.34286 4.875 3.34286ZM3.62143 5.43214C3.62143 4.73981 4.18267 4.17857 4.875 4.17857C5.56733 4.17857 6.12857 4.73981 6.12857 5.43214C6.12857 6.12447 5.56733 6.68571 4.875 6.68571C4.18267 6.68571 3.62143 6.12447 3.62143 5.43214Z" fill="var(--fill-0, white)"/>
<path fill-rule="evenodd" clip-rule="evenodd" d="M4.875 0C2.15428 0 0 2.36383 0 5.21413C0 6.12825 0.45413 7.20466 1.0255 8.21481C1.60612 9.2413 2.34717 10.266 2.99689 11.0945L3.01856 11.1222C3.33569 11.5266 3.60585 11.8712 3.86782 12.1092C4.15363 12.3688 4.46881 12.5388 4.875 12.5388C5.28119 12.5388 5.59637 12.3688 5.88218 12.1092C6.14415 11.8712 6.41431 11.5266 6.73144 11.1222L6.75311 11.0945C7.40282 10.266 8.14388 9.2413 8.7245 8.21481C9.29587 7.20466 9.75 6.12825 9.75 5.21413C9.75 2.36383 7.59572 0 4.875 0ZM0.835714 5.21413C0.835714 2.76661 2.67249 0.835714 4.875 0.835714C7.07751 0.835714 8.91429 2.76661 8.91429 5.21413C8.91429 5.89746 8.55793 6.81183 7.99709 7.80336C7.4455 8.77853 6.73264 9.76636 6.09549 10.5788C5.75064 11.0186 5.52358 11.3059 5.32026 11.4906C5.13482 11.659 5.01104 11.703 4.875 11.703C4.73896 11.703 4.61518 11.659 4.42974 11.4906C4.22642 11.3059 3.99936 11.0186 3.65451 10.5788C3.01736 9.76636 2.3045 8.77853 1.75291 7.80336C1.19207 6.81183 0.835714 5.89746 0.835714 5.21413Z" fill="var(--fill-0, white)"/>
</g>
</g>
</svg>
