<svg preserveAspectRatio="none" width="100%" height="100%" overflow="visible" style="display: block;" viewBox="0 0 11.6299 11.6299" fill="none" xmlns="http://www.w3.org/2000/svg">
<g id="Website">
<path id="Vector" d="M5.81445 0C6.2264 1.67112e-05 6.62926 0.0423289 7.01758 0.124023C8.92136 0.524701 10.4817 1.85615 11.2012 3.61914C11.4777 4.29694 11.6298 5.03843 11.6299 5.81445C11.6299 6.2265 11.5866 6.62917 11.5049 7.01758C11.0322 9.26399 9.26396 11.0321 7.01758 11.5049C6.62923 11.5866 6.22644 11.6299 5.81445 11.6299C5.40253 11.6299 4.99963 11.5866 4.61133 11.5049C2.36505 11.032 0.596718 9.26391 0.124023 7.01758C0.0423128 6.62918 0 6.22648 0 5.81445C3.57021e-05 5.03764 0.152622 4.29554 0.429688 3.61719C1.14947 1.85515 2.70825 0.524579 4.61133 0.124023C4.99963 0.0423339 5.40253 1.89322e-05 5.81445 0ZM7.35547 8.21973C6.82546 8.29862 6.29678 8.35057 5.81445 8.35059C5.45263 8.35057 5.06477 8.32133 4.66992 8.27344L4.27344 8.21973C4.50073 9.33173 4.80132 10.3583 4.95508 10.8564C5.23429 10.9037 5.52136 10.9297 5.81445 10.9297C6.10745 10.9297 6.3947 10.9036 6.67383 10.8564C6.78912 10.4829 6.98719 9.81231 7.1748 9.03125L7.35547 8.21973ZM0.974609 7.46484C1.48469 8.96129 2.6677 10.144 4.16406 10.6543C3.98182 10.0318 3.72573 9.08365 3.53613 8.09277C2.54525 7.90314 1.59701 7.64706 0.974609 7.46484ZM10.6543 7.46484C10.0318 7.64707 9.08362 7.90316 8.09277 8.09277C7.90317 9.08367 7.64709 10.0318 7.46484 10.6543C8.9613 10.1441 10.1442 8.96134 10.6543 7.46484ZM7.5957 4.90137C6.98574 5.00136 6.36947 5.07127 5.81445 5.07129C5.25936 5.07127 4.64325 5.00138 4.0332 4.90137C3.99852 5.22197 3.97853 5.52983 3.97852 5.81445C3.97852 6.32129 4.04276 6.89963 4.13965 7.48926C4.7293 7.58616 5.30758 7.65037 5.81445 7.65039C6.32125 7.65037 6.8997 7.58614 7.48926 7.48926C7.58615 6.89962 7.65039 6.3213 7.65039 5.81445C7.65038 5.52982 7.63039 5.22198 7.5957 4.90137ZM0.96582 4.18359C0.793693 4.6955 0.699248 5.24366 0.699219 5.81445C0.699219 6.10717 0.725367 6.39398 0.772461 6.67285C1.27008 6.82647 2.29626 7.1281 3.4082 7.35547C3.32932 6.82544 3.27832 6.29678 3.27832 5.81445C3.27833 5.48446 3.3017 5.13358 3.3418 4.77637C2.41695 4.59049 1.54658 4.3538 0.96582 4.18359ZM10.6621 4.18359C10.0811 4.35385 9.21082 4.59058 8.28613 4.77637C8.32624 5.13363 8.35057 5.48442 8.35059 5.81445C8.35059 6.29683 8.29863 6.82538 8.21973 7.35547C9.33173 7.12816 10.3584 6.82756 10.8564 6.67383C10.9036 6.39464 10.9297 6.10752 10.9297 5.81445C10.9297 5.24351 10.8343 4.69561 10.6621 4.18359ZM5.81445 0.699219C5.52178 0.699234 5.23488 0.72439 4.95605 0.771484C4.76578 1.38778 4.35298 2.81395 4.12988 4.20801C4.7226 4.30578 5.30447 4.37205 5.81445 4.37207C6.32436 4.37205 6.9064 4.30575 7.49902 4.20801C7.27592 2.8139 6.86311 1.38773 6.67285 0.771484C6.3941 0.724422 6.10703 0.699233 5.81445 0.699219ZM4.16309 0.97168C2.88414 1.40775 1.8334 2.33757 1.23633 3.5332C1.79514 3.69546 2.59512 3.91034 3.44141 4.08203C3.63168 2.90044 3.94775 1.70694 4.16309 0.97168ZM7.46484 0.97168C7.68017 1.7069 7.9972 2.90027 8.1875 4.08203C9.03388 3.91034 9.8337 3.6945 10.3926 3.53223C9.79525 2.33667 8.74399 1.40748 7.46484 0.97168Z" fill="var(--fill-0, white)"/>
</g>
</svg>
