<svg preserveAspectRatio="none" width="100%" height="100%" overflow="visible" style="display: block;" viewBox="0 0 19 19" fill="none" xmlns="http://www.w3.org/2000/svg">
<g id="Vector">
<path d="M15.7497 5.55701C12.9046 4.12543 9.34799 4.5985 6.97326 6.97619C4.65727 9.29507 4.15059 12.7395 5.45322 15.5509C5.27235 15.4632 5.09329 15.3649 4.91653 15.2555C4.74103 15.1469 4.65329 15.0926 4.58694 15.0663C4.46008 15.016 4.36388 15.0015 4.22784 15.012C4.1567 15.0175 4.0761 15.0384 3.91491 15.0803C2.90041 15.3435 2.39311 15.4752 2.02767 15.4007C1.39341 15.2715 0.897721 14.7752 0.768641 14.1401C0.69427 13.7742 0.825744 13.2664 1.08869 12.2506C1.13049 12.0891 1.15139 12.0084 1.15686 11.9369C1.1673 11.8007 1.15247 11.7033 1.10199 11.5764C1.0755 11.5098 1.02135 11.4225 0.913063 11.2481C-1.04244 8.09746 0.470941 4.27798 2.38121 2.36533C5.53105 -0.788443 10.638 -0.788443 13.7878 2.36533C14.7143 3.29294 15.3682 4.39008 15.7497 5.55701Z" fill="var(--fill-0, white)"/>
<path fill-rule="evenodd" clip-rule="evenodd" d="M14.9511 18.2634C12.3541 19.8703 9.15425 18.5641 7.64534 17.0533C5.05135 14.4561 5.05135 10.2451 7.64534 7.64792C10.2393 5.0507 14.445 5.0507 17.039 7.64792C18.6122 9.22304 19.8585 12.3685 18.2481 14.9631C18.1589 15.1068 18.1143 15.1786 18.0925 15.2335C18.0509 15.338 18.0387 15.4182 18.0473 15.5304C18.0518 15.5893 18.069 15.6557 18.1034 15.7887C18.32 16.6252 18.4282 17.0435 18.367 17.3448C18.2607 17.8678 17.8525 18.2765 17.3301 18.383C17.0292 18.4443 16.6115 18.3359 15.776 18.1191C15.6432 18.0846 15.5768 18.0674 15.5182 18.0628C15.4062 18.0542 15.327 18.0662 15.2225 18.1076C15.1679 18.1292 15.0956 18.174 14.9511 18.2634ZM10.4499 12.35C10.4499 12.8747 10.0246 13.3 9.49989 13.3C8.97521 13.3 8.54988 12.8747 8.54988 12.35C8.54988 11.8253 8.97521 11.4 9.49989 11.4C10.0246 11.4 10.4499 11.8253 10.4499 12.35ZM13.2999 12.35C13.2999 12.8747 12.8746 13.3 12.3499 13.3C11.8252 13.3 11.3999 12.8747 11.3999 12.35C11.3999 11.8253 11.8252 11.4 12.3499 11.4C12.8746 11.4 13.2999 11.8253 13.2999 12.35ZM15.2 13.3C15.7246 13.3 16.15 12.8747 16.15 12.35C16.15 11.8253 15.7246 11.4 15.2 11.4C14.6753 11.4 14.2499 11.8253 14.2499 12.35C14.2499 12.8747 14.6753 13.3 15.2 13.3Z" fill="var(--fill-0, white)"/>
</g>
</svg>
