<svg preserveAspectRatio="none" width="100%" height="100%" overflow="visible" style="display: block;" viewBox="0 0 14.4 16" fill="none" xmlns="http://www.w3.org/2000/svg">
<g id="Document Download 2">
<g id="Vector">
<path fill-rule="evenodd" clip-rule="evenodd" d="M0 8.8C0 11.7998 0 13.2997 0.763932 14.3511C1.01065 14.6907 1.30928 14.9893 1.64886 15.2361C2.70032 16 4.20021 16 7.2 16C10.1998 16 11.6997 16 12.7511 15.2361C13.0907 14.9893 13.3894 14.6907 13.6361 14.3511C14.4 13.2997 14.4 11.7998 14.4 8.8V7.2C14.4 6.52885 14.4 5.93277 14.3914 5.4L14.3353 5.4C13.6537 5.40006 13.2385 5.40009 12.8804 5.34337C10.9121 5.03162 9.36838 3.4879 9.05663 1.5196C8.99991 1.16146 8.99994 0.746269 9 0.0646561L9 0.0085556C8.46723 0 7.87115 0 7.2 0C4.20021 0 2.70032 0 1.64886 0.763931C1.30928 1.01065 1.01065 1.30928 0.763932 1.64886C0 2.70032 0 4.20021 0 7.2V8.8ZM7.8 5.6C7.8 5.26863 7.53137 5 7.2 5C6.86863 5 6.6 5.26863 6.6 5.6V11.149C6.58863 11.1401 6.57703 11.1309 6.56519 11.1214C6.30709 10.9141 6.00026 10.6059 5.54443 10.1459L4.42615 9.01763C4.19289 8.78228 3.81299 8.78058 3.57763 9.01385C3.34228 9.24711 3.34058 9.62701 3.57385 9.86237L4.71651 11.0153C5.14162 11.4442 5.49618 11.802 5.81379 12.057C6.14693 12.3246 6.49705 12.5281 6.9236 12.5825C7.10713 12.6058 7.29287 12.6058 7.4764 12.5825C7.90295 12.5281 8.25307 12.3246 8.58621 12.057C8.90381 11.802 9.25835 11.4442 9.68345 11.0153L10.8262 9.86237C11.0594 9.62701 11.0577 9.24711 10.8224 9.01385C10.587 8.78058 10.2071 8.78228 9.97385 9.01763L8.85557 10.1459C8.39974 10.6059 8.09291 10.9141 7.83481 11.1214C7.82297 11.1309 7.81137 11.1401 7.8 11.149V5.6Z" fill="var(--fill-0, white)"/>
<path d="M13.0681 4.15814C13.3148 4.19722 13.6195 4.19989 14.3477 4.2C14.2722 3.0483 14.0875 2.27027 13.6361 1.64886C13.3894 1.30928 13.0907 1.01065 12.7511 0.763931C12.1297 0.312453 11.3517 0.127795 10.2 0.052269C10.2001 0.78054 10.2028 1.08516 10.2419 1.33188C10.4723 2.78671 11.6133 3.92772 13.0681 4.15814Z" fill="var(--fill-0, white)"/>
</g>
</g>
</svg>
