<svg preserveAspectRatio="none" width="100%" height="100%" overflow="visible" style="display: block;" viewBox="0 0 15 15" fill="none" xmlns="http://www.w3.org/2000/svg">
<g id="Mail.svg">
<path id="Vector" fill-rule="evenodd" clip-rule="evenodd" d="M14.375 4.29573L8.82803 7.76261C8.01152 8.27291 6.97055 8.25218 6.17504 7.70978L0.642258 3.93743C0.63087 4.01254 0.625002 4.08901 0.625002 4.16638V10.8331C0.625002 11.7277 1.40944 12.4997 2.44048 12.4997H12.5595C13.5905 12.4997 14.375 11.7277 14.375 10.8331V4.29573ZM13.8935 3.03589L8.12652 6.64025C7.7554 6.87221 7.28224 6.86278 6.92064 6.61624L1.36081 2.82545C1.65908 2.62193 2.03026 2.49971 2.44048 2.49971H12.5595C13.0963 2.49971 13.5663 2.70899 13.8935 3.03589Z" fill="var(--fill-0, white)"/>
</g>
</svg>
