<svg preserveAspectRatio="none" width="100%" height="100%" overflow="visible" style="display: block;" viewBox="0 0 29.1663 21.4302" fill="none" xmlns="http://www.w3.org/2000/svg">
<g id="Message 26">
<g id="Vector">
<path d="M24.1769 6.26776C19.8095 4.65309 14.3498 5.18666 10.7044 7.86847C7.14923 10.4839 6.37144 14.3689 8.37107 17.5399C8.09342 17.4409 7.81856 17.3301 7.54722 17.2068C7.27782 17.0843 7.14312 17.023 7.04127 16.9934C6.84654 16.9366 6.69885 16.9202 6.49003 16.9321C6.38083 16.9383 6.2571 16.9619 6.00966 17.0091C4.45233 17.306 3.67359 17.4545 3.11262 17.3705C2.13899 17.2248 1.37807 16.665 1.17992 15.9487C1.06575 15.536 1.26757 14.9632 1.67122 13.8175C1.73538 13.6354 1.76746 13.5443 1.77587 13.4637C1.79189 13.3101 1.76912 13.2002 1.69163 13.057C1.65097 12.9819 1.56785 12.8835 1.40162 12.6867C-1.60022 9.13315 0.722928 4.82514 3.65532 2.66786C8.49055 -0.889287 16.33 -0.889287 21.1652 2.66786C22.5874 3.71412 23.5913 4.95158 24.1769 6.26776Z" fill="var(--fill-0, white)"/>
<path fill-rule="evenodd" clip-rule="evenodd" d="M22.951 20.5993C18.9644 22.4117 14.0524 20.9385 11.7361 19.2345C7.75418 16.305 7.75418 11.5555 11.7361 8.62611C15.7181 5.69669 22.1741 5.69669 26.1561 8.62611C28.571 10.4027 30.4842 13.9505 28.0121 16.8769C27.8752 17.039 27.8067 17.12 27.7732 17.1819C27.7094 17.2998 27.6907 17.3903 27.7038 17.5168C27.7108 17.5832 27.7372 17.6582 27.79 17.8081C28.1224 18.7516 28.2886 19.2234 28.1946 19.5633C28.0315 20.1531 27.4048 20.6141 26.603 20.7342C26.141 20.8034 25.4998 20.6811 24.2173 20.4365C24.0135 20.3977 23.9115 20.3782 23.8216 20.3731C23.6496 20.3633 23.528 20.3769 23.3676 20.4236C23.2838 20.448 23.1728 20.4984 22.951 20.5993ZM16.0413 13.9296C16.0413 14.5214 15.3884 15.0011 14.583 15.0011C13.7776 15.0011 13.1247 14.5214 13.1247 13.9296C13.1247 13.3378 13.7776 12.8581 14.583 12.8581C15.3884 12.8581 16.0413 13.3378 16.0413 13.9296ZM20.4163 13.9296C20.4163 14.5214 19.7634 15.0011 18.958 15.0011C18.1526 15.0011 17.4997 14.5214 17.4997 13.9296C17.4997 13.3378 18.1526 12.8581 18.958 12.8581C19.7634 12.8581 20.4163 13.3378 20.4163 13.9296ZM23.333 15.0011C24.1384 15.0011 24.7913 14.5214 24.7913 13.9296C24.7913 13.3378 24.1384 12.8581 23.333 12.8581C22.5276 12.8581 21.8747 13.3378 21.8747 13.9296C21.8747 14.5214 22.5276 15.0011 23.333 15.0011Z" fill="var(--fill-0, white)"/>
</g>
</g>
</svg>
