<svg preserveAspectRatio="none" width="100%" height="100%" overflow="visible" style="display: block;" viewBox="0 0 12.167 12.167" fill="none" xmlns="http://www.w3.org/2000/svg">
<g id="Website">
<path id="Vector" d="M6.08301 0C6.51414 2.28473e-05 6.93561 0.0453935 7.3418 0.130859C9.333 0.549982 10.9651 1.94183 11.7178 3.78613C12.007 4.49505 12.1669 5.27095 12.167 6.08301C12.167 6.51411 12.1216 6.93563 12.0361 7.3418C11.5416 9.69151 9.69151 11.5416 7.3418 12.0361C6.93563 12.1216 6.51411 12.167 6.08301 12.167C5.65199 12.167 5.23031 12.1216 4.82422 12.0361C2.47466 11.5415 0.625413 9.69137 0.130859 7.3418C0.0453936 6.93561 2.28306e-05 6.51414 0 6.08301C4.25694e-05 5.27023 0.159487 4.49361 0.449219 3.78418C1.2022 1.94082 2.83374 0.549891 4.82422 0.130859C5.23036 0.0454175 5.65194 2.25779e-05 6.08301 0ZM7.88184 8.50098C7.26248 8.59957 6.64193 8.66697 6.08301 8.66699C5.66379 8.66697 5.20992 8.62889 4.74805 8.56836L4.28418 8.50098C4.54226 9.81538 4.90652 11.0469 5.07031 11.5723C5.3986 11.6324 5.73697 11.667 6.08301 11.667C6.42896 11.667 6.76749 11.6324 7.0957 11.5723C7.23902 11.1126 7.53539 10.112 7.78027 8.98828L7.88184 8.50098ZM0.725586 7.65918C1.25883 9.47467 2.69059 10.9057 4.50586 11.4395C4.30805 10.7815 3.98356 9.61934 3.75684 8.40918C2.54585 8.18228 1.3832 7.85693 0.725586 7.65918ZM11.4395 7.65918C10.7816 7.85698 9.61962 8.1824 8.40918 8.40918C8.1824 9.61962 7.85698 10.7816 7.65918 11.4395C9.47497 10.906 10.906 9.47497 11.4395 7.65918ZM8.0918 4.96484C7.40313 5.08259 6.70498 5.16696 6.08301 5.16699C5.46096 5.16696 4.76297 5.08262 4.07422 4.96484C4.02776 5.35695 4.00002 5.73529 4 6.08301C4.00003 6.65794 4.07531 7.31478 4.1875 7.97754C4.85077 8.08987 5.50764 8.16696 6.08301 8.16699C6.65802 8.16696 7.31469 8.08975 7.97754 7.97754C8.08975 7.31469 8.16696 6.65802 8.16699 6.08301C8.16698 5.73529 8.13825 5.35695 8.0918 4.96484ZM0.829102 4.18945C0.616098 4.78035 0.500038 5.418 0.5 6.08301C0.500021 6.42892 0.533635 6.76753 0.59375 7.0957C1.11884 7.25942 2.35045 7.6237 3.66504 7.88184C3.56646 7.26251 3.50003 6.6419 3.5 6.08301C3.50002 5.70196 3.53074 5.29285 3.58105 4.87598C2.49446 4.66324 1.46566 4.37852 0.829102 4.18945ZM11.3359 4.19043C10.699 4.37957 9.67028 4.66336 8.58398 4.87598C8.63431 5.29289 8.66697 5.70193 8.66699 6.08301C8.66697 6.64193 8.59957 7.26248 8.50098 7.88184C9.81553 7.62373 11.047 7.25947 11.5723 7.0957C11.6324 6.76749 11.667 6.42896 11.667 6.08301C11.667 5.4182 11.5488 4.78117 11.3359 4.19043ZM6.08301 0.5C5.73697 0.50002 5.3986 0.53359 5.07031 0.59375C4.87307 1.22637 4.38627 2.88001 4.14355 4.46973C4.82144 4.5862 5.49469 4.66696 6.08301 4.66699C6.67125 4.66696 7.34466 4.58617 8.02246 4.46973C7.77974 2.88004 7.29294 1.22636 7.0957 0.59375C6.76753 0.533635 6.42892 0.500021 6.08301 0.5ZM4.50684 0.727539C2.96102 1.18182 1.69325 2.28593 1.02148 3.72559C1.64752 3.91041 2.62416 4.17737 3.65234 4.37988C3.87069 2.95822 4.27539 1.49737 4.50684 0.727539ZM7.65918 0.727539C7.89062 1.49735 8.29532 2.95825 8.51367 4.37988C9.54188 4.17738 10.5184 3.91043 11.1445 3.72559C10.4727 2.28599 9.20501 1.18176 7.65918 0.727539Z" fill="var(--fill-0, white)"/>
</g>
</svg>
