<svg preserveAspectRatio="none" width="100%" height="100%" overflow="visible" style="display: block;" viewBox="0 0 9.13267 10.5278" fill="none" xmlns="http://www.w3.org/2000/svg">
<g id="Calender 2">
<g id="Vector">
<path fill-rule="evenodd" clip-rule="evenodd" d="M2.28327 1.46255C1.7549 1.5252 1.36733 1.64617 1.04585 1.87974C0.830491 2.03621 0.641099 2.2256 0.484629 2.44096C0.000141203 3.1078 0.000141203 4.05904 0.000141203 5.96151C0.000141203 7.86399 0.000141203 8.81523 0.484629 9.48207C0.641099 9.69743 0.830491 9.88682 1.04585 10.0433C1.71269 10.5278 2.66393 10.5278 4.56641 10.5278C4.99205 10.5278 5.37009 10.5278 5.70797 10.5224L5.70797 10.4868C5.70794 10.0545 5.70792 9.79118 5.74389 9.56404C5.9416 8.31574 6.92063 7.33671 8.16894 7.139C8.39607 7.10302 8.65938 7.10304 9.09167 7.10308L9.12725 7.10308C9.13267 6.76526 9.13267 6.3873 9.13267 5.96175C9.13267 4.05927 9.13267 3.1078 8.64818 2.44096C8.49171 2.2256 8.30232 2.03621 8.08696 1.87974C7.76549 1.64617 7.37792 1.52521 6.84954 1.46255V1.90261C6.84954 2.32292 6.50881 2.66365 6.08849 2.66365C5.66818 2.66365 5.32745 2.32292 5.32745 1.90261V1.39667C5.09198 1.39525 4.83896 1.39525 4.56641 1.39525C4.29386 1.39525 4.04083 1.39525 3.80536 1.39667V1.90261C3.80536 2.32292 3.46463 2.66365 3.04432 2.66365C2.624 2.66365 2.28327 2.32292 2.28327 1.90261V1.46255ZM2.02959 4.43942C2.3098 4.43942 2.53696 4.21227 2.53696 3.93206C2.53696 3.65185 2.3098 3.4247 2.02959 3.4247C1.74938 3.4247 1.52223 3.65185 1.52223 3.93206C1.52223 4.21227 1.74938 4.43942 2.02959 4.43942ZM2.53696 5.96151C2.53696 6.24172 2.3098 6.46888 2.02959 6.46888C1.74938 6.46888 1.52223 6.24172 1.52223 5.96151C1.52223 5.6813 1.74938 5.45415 2.02959 5.45415C2.3098 5.45415 2.53696 5.6813 2.53696 5.96151ZM4.56641 4.43942C4.84662 4.43942 5.07377 4.21227 5.07377 3.93206C5.07377 3.65185 4.84662 3.4247 4.56641 3.4247C4.2862 3.4247 4.05904 3.65185 4.05904 3.93206C4.05904 4.21227 4.2862 4.43942 4.56641 4.43942ZM5.07377 5.96151C5.07377 6.24172 4.84662 6.46888 4.56641 6.46888C4.2862 6.46888 4.05904 6.24172 4.05904 5.96151C4.05904 5.6813 4.2862 5.45415 4.56641 5.45415C4.84662 5.45415 5.07377 5.6813 5.07377 5.96151ZM4.56641 8.49833C4.84662 8.49833 5.07377 8.27117 5.07377 7.99096C5.07377 7.71075 4.84662 7.4836 4.56641 7.4836C4.2862 7.4836 4.05904 7.71075 4.05904 7.99096C4.05904 8.27117 4.2862 8.49833 4.56641 8.49833ZM7.61058 3.93206C7.61058 4.21227 7.38343 4.43942 7.10322 4.43942C6.82301 4.43942 6.59586 4.21227 6.59586 3.93206C6.59586 3.65185 6.82301 3.4247 7.10322 3.4247C7.38343 3.4247 7.61058 3.65185 7.61058 3.93206ZM7.10322 6.46888C7.38343 6.46888 7.61058 6.24172 7.61058 5.96151C7.61058 5.6813 7.38343 5.45415 7.10322 5.45415C6.82301 5.45415 6.59586 5.6813 6.59586 5.96151C6.59586 6.24172 6.82301 6.46888 7.10322 6.46888ZM2.53696 7.99096C2.53696 8.27117 2.3098 8.49833 2.02959 8.49833C1.74938 8.49833 1.52223 8.27117 1.52223 7.99096C1.52223 7.71075 1.74938 7.4836 2.02959 7.4836C2.3098 7.4836 2.53696 7.71075 2.53696 7.99096Z" fill="var(--fill-0, white)"/>
<path d="M9.09952 7.86413C8.63765 7.86419 8.44446 7.86589 8.28799 7.89067C7.36533 8.03681 6.6417 8.76044 6.49556 9.6831C6.47078 9.83956 6.46908 10.0328 6.46902 10.4946C7.19943 10.4467 7.69286 10.3296 8.08696 10.0433C8.30232 9.88682 8.49171 9.69743 8.64818 9.48207C8.93451 9.08797 9.05162 8.59454 9.09952 7.86413Z" fill="var(--fill-0, white)"/>
<path d="M3.42484 0.380522C3.42484 0.170366 3.25447 0 3.04432 0C2.83416 0 2.6638 0.170366 2.6638 0.380522V1.90261C2.6638 2.11277 2.83416 2.28313 3.04432 2.28313C3.25447 2.28313 3.42484 2.11277 3.42484 1.90261V0.380522Z" fill="var(--fill-0, white)"/>
<path d="M6.46902 0.380522C6.46902 0.170366 6.29865 0 6.08849 0C5.87834 0 5.70797 0.170366 5.70797 0.380522V1.90261C5.70797 2.11277 5.87834 2.28313 6.08849 2.28313C6.29865 2.28313 6.46902 2.11277 6.46902 1.90261V0.380522Z" fill="var(--fill-0, white)"/>
</g>
</g>
</svg>
