<svg preserveAspectRatio="none" width="100%" height="100%" overflow="visible" style="display: block;" viewBox="0 0 12.7946 14.0745" fill="none" xmlns="http://www.w3.org/2000/svg">
<g id="Verified">
<path id="Vector" fill-rule="evenodd" clip-rule="evenodd" d="M4.29524 1.58607C4.89876 -0.528691 7.8958 -0.528691 8.49932 1.58607C8.69206 2.26142 9.38589 2.66201 10.0671 2.49125C12.2003 1.95653 13.6988 4.55204 12.1692 6.13209C11.6807 6.63668 11.6807 7.43785 12.1692 7.94244C13.6988 9.52249 12.2003 12.118 10.0671 11.5833C9.38589 11.4125 8.69206 11.8131 8.49932 12.4885C7.8958 14.6032 4.89876 14.6032 4.29524 12.4885C4.1025 11.8131 3.40866 11.4125 2.72743 11.5833C0.594228 12.118 -0.904289 9.52249 0.625387 7.94244C1.11389 7.43785 1.11389 6.63668 0.625387 6.13209C-0.904289 4.55204 0.594228 1.95653 2.72743 2.49125C3.40866 2.66201 4.1025 2.26142 4.29524 1.58607ZM9.09604 5.5512C9.25243 5.36354 9.22707 5.08464 9.03941 4.92826C8.85175 4.77188 8.57285 4.79723 8.41647 4.98489L6.37387 7.43601C6.1552 7.69842 6.02091 7.85789 5.91029 7.95779C5.85899 8.00412 5.82855 8.02258 5.81396 8.02964C5.811 8.03107 5.80889 8.03194 5.80756 8.03243C5.80622 8.03194 5.80411 8.03107 5.80115 8.02964C5.78656 8.02258 5.75613 8.00412 5.70483 7.95779C5.5942 7.85789 5.45991 7.69841 5.24124 7.43601L4.37812 6.40027C4.22174 6.21261 3.94284 6.18725 3.75518 6.34364C3.56752 6.50002 3.54217 6.77892 3.69855 6.96658L4.5805 8.02493C4.77421 8.25743 4.94884 8.46703 5.11196 8.61433C5.28944 8.77459 5.51299 8.91733 5.80756 8.91733C6.10213 8.91733 6.32567 8.77459 6.50315 8.61433C6.66627 8.46704 6.8409 8.25744 7.03461 8.02494L9.09604 5.5512Z" fill="var(--fill-0, #968AD7)"/>
</g>
</svg>
