<svg preserveAspectRatio="none" width="100%" height="100%" overflow="visible" style="display: block;" viewBox="0 0 19 19" fill="none" xmlns="http://www.w3.org/2000/svg">
<g id="Group 2089344332">
<circle id="Ellipse 5" cx="9.5" cy="9.5" r="9.5" fill="var(--fill-0, #484848)"/>
<g id="lock-alt-svgrepo-com 1" opacity="0.5">
<path id="Vector" d="M9.49898 10.6458V11.5625M11.7906 8.59653C12.0603 8.61299 12.2516 8.65002 12.4149 8.73321C12.6736 8.86502 12.884 9.07535 13.0158 9.33408C13.1656 9.62824 13.1656 10.0132 13.1656 10.7833V11.425C13.1656 12.1951 13.1656 12.5801 13.0158 12.8742C12.884 13.133 12.6736 13.3433 12.4149 13.4751C12.1207 13.625 11.7357 13.625 10.9656 13.625H8.03231C7.26224 13.625 6.8772 13.625 6.58307 13.4751C6.32435 13.3433 6.114 13.133 5.98218 12.8742C5.83231 12.5801 5.83231 12.1951 5.83231 11.425V10.7833C5.83231 10.0132 5.83231 9.62824 5.98218 9.33408C6.114 9.07535 6.32435 8.86502 6.58307 8.73321C6.74636 8.65002 6.93766 8.61299 7.20731 8.59653C7.42338 8.58333 7.68975 8.58333 8.03231 8.58333H10.9656C11.3082 8.58333 11.5746 8.58333 11.7906 8.59653ZM7.20731 8.59653V7.66667C7.20731 6.40102 8.23333 5.375 9.49898 5.375C10.7646 5.375 11.7906 6.40102 11.7906 7.66667V8.59653" stroke="var(--stroke-0, white)" stroke-width="0.916667" stroke-linecap="round" stroke-linejoin="round"/>
</g>
</g>
</svg>
