<svg preserveAspectRatio="none" width="100%" height="100%" overflow="visible" style="display: block;" viewBox="0 0 11.0995 10.7689" fill="none" xmlns="http://www.w3.org/2000/svg">
<g id="Star 2">
<path id="Vector" d="M7.59694 1.48737C6.95257 -0.49579 4.14692 -0.49579 3.50256 1.48737C3.3131 2.07044 2.76975 2.46521 2.15667 2.46521C0.0714505 2.46521 -0.795542 5.13354 0.891436 6.3592C1.38743 6.71956 1.59497 7.35831 1.40552 7.94138C0.761151 9.92455 3.03096 11.5737 4.71794 10.348C5.21393 9.98764 5.88556 9.98764 6.38155 10.348C8.06853 11.5737 10.3383 9.92455 9.69397 7.94138C9.50452 7.35831 9.71206 6.71956 10.2081 6.3592C11.895 5.13354 11.028 2.46521 8.94282 2.46521C8.32974 2.46521 7.78639 2.07044 7.59694 1.48737Z" fill="var(--fill-0, white)"/>
</g>
</svg>
