<svg preserveAspectRatio="none" width="100%" height="100%" overflow="visible" style="display: block;" viewBox="0 0 70.8625 70.8625" fill="none" xmlns="http://www.w3.org/2000/svg">
<g id="Vector" filter="url(#filter0_d_0_107)">
<path d="M33.9626 27.7128C34.0652 27.6535 34.1695 27.6003 34.2751 27.5529L34.2751 33.7662C31.7667 32.6586 31.5318 29.1162 33.9626 27.7128Z" fill="#968AD7"/>
<path d="M36.5876 43.3097L36.5877 37.0963C39.0961 38.2039 39.3311 41.7463 36.9003 43.1497C36.7976 43.209 36.6932 43.2623 36.5876 43.3097Z" fill="#968AD7"/>
<path fill-rule="evenodd" clip-rule="evenodd" d="M35.3615 20.4H35.501C38.3323 20.4 40.5517 20.4 42.3125 20.5907C44.1094 20.7854 45.5653 21.1898 46.8084 22.093C47.5609 22.6397 48.2227 23.3016 48.7695 24.0541C49.6727 25.2972 50.0771 26.7531 50.2718 28.55C50.4625 30.3107 50.4625 32.5301 50.4625 35.3613V35.501C50.4625 38.3323 50.4625 40.5518 50.2718 42.3125C50.0771 44.1094 49.6727 45.5653 48.7695 46.8084C48.2228 47.5609 47.5609 48.2228 46.8084 48.7695C45.5653 49.6727 44.1094 50.0771 42.3125 50.2718C40.5518 50.4625 38.3324 50.4625 35.5012 50.4625H35.3615C32.5302 50.4625 30.3107 50.4625 28.55 50.2718C26.7531 50.0771 25.2972 49.6727 24.0541 48.7695C23.3016 48.2227 22.6397 47.5609 22.093 46.8084C21.1898 45.5653 20.7854 44.1094 20.5907 42.3125C20.4 40.5517 20.4 38.3323 20.4 35.501V35.3615C20.4 32.5302 20.4 30.3108 20.5907 28.55C20.7854 26.7531 21.1898 25.2972 22.093 24.0541C22.6397 23.3016 23.3016 22.6397 24.0541 22.093C25.2972 21.1898 26.7531 20.7854 28.55 20.5907C30.3108 20.4 32.5302 20.4 35.3615 20.4ZM36.5876 24.6396C36.5876 24.001 36.0699 23.4833 35.4313 23.4833C34.7928 23.4833 34.2751 24.001 34.2751 24.6396V25.1145C33.7713 25.2409 33.277 25.4384 32.8063 25.7101C28.6101 28.1328 29.1434 34.3504 33.6909 36.0231L34.2752 36.2379L34.2751 43.4779C33.4505 43.2453 32.7137 42.7033 32.2524 41.9043L31.6734 40.9015C31.3541 40.3484 30.647 40.159 30.0939 40.4783C29.5409 40.7975 29.3514 41.5047 29.6707 42.0577L30.2497 43.0606C31.1415 44.6052 32.645 45.5748 34.2751 45.8429L34.2751 46.2229C34.2751 46.8615 34.7927 47.3792 35.4313 47.3792C36.0699 47.3792 36.5876 46.8615 36.5876 46.2229L36.5876 45.748C37.0914 45.6216 37.5858 45.4242 38.0565 45.1524C42.2527 42.7297 41.7194 36.5121 37.1719 34.8394L36.5877 34.6246L36.5876 27.3846C37.4123 27.6171 38.1491 28.1592 38.6104 28.9582L39.1894 29.961C39.5087 30.5141 40.2158 30.7035 40.7689 30.3842C41.3219 30.065 41.5114 29.3578 41.1921 28.8048L40.6131 27.8019C39.7213 26.2572 38.2177 25.2876 36.5876 25.0196V24.6396Z" fill="#968AD7"/>
</g>
<defs>
<filter id="filter0_d_0_107" x="0" y="0" width="70.8625" height="70.8625" filterUnits="userSpaceOnUse" color-interpolation-filters="sRGB">
<feFlood flood-opacity="0" result="BackgroundImageFix"/>
<feColorMatrix in="SourceAlpha" type="matrix" values="0 0 0 0 0 0 0 0 0 0 0 0 0 0 0 0 0 0 127 0" result="hardAlpha"/>
<feOffset/>
<feGaussianBlur stdDeviation="10.2"/>
<feComposite in2="hardAlpha" operator="out"/>
<feColorMatrix type="matrix" values="0 0 0 0 0.588235 0 0 0 0 0.541176 0 0 0 0 0.843137 0 0 0 0.2 0"/>
<feBlend mode="normal" in2="BackgroundImageFix" result="effect1_dropShadow_0_107"/>
<feBlend mode="normal" in="SourceGraphic" in2="effect1_dropShadow_0_107" result="shape"/>
</filter>
</defs>
</svg>
