<svg preserveAspectRatio="none" width="100%" height="100%" overflow="visible" style="display: block;" viewBox="0 0 7.75 9.96686" fill="none" xmlns="http://www.w3.org/2000/svg">
<g id="Location">
<g id="Vector">
<path fill-rule="evenodd" clip-rule="evenodd" d="M3.875 2.65714C2.95781 2.65714 2.21429 3.40067 2.21429 4.31786C2.21429 5.23504 2.95781 5.97857 3.875 5.97857C4.79219 5.97857 5.53571 5.23504 5.53571 4.31786C5.53571 3.40067 4.79219 2.65714 3.875 2.65714ZM2.87857 4.31786C2.87857 3.76754 3.32469 3.32143 3.875 3.32143C4.42531 3.32143 4.87143 3.76754 4.87143 4.31786C4.87143 4.86817 4.42531 5.31429 3.875 5.31429C3.32469 5.31429 2.87857 4.86817 2.87857 4.31786Z" fill="var(--fill-0, white)"/>
<path fill-rule="evenodd" clip-rule="evenodd" d="M3.875 0C1.71238 0 0 1.87894 0 4.14456C0 4.87117 0.360975 5.72678 0.81514 6.52972C1.27666 7.34565 1.8657 8.16018 2.38214 8.81874L2.39937 8.84071C2.65145 9.1622 2.86619 9.43607 3.07442 9.62522C3.30161 9.83159 3.55213 9.96671 3.875 9.96671C4.19787 9.96671 4.44839 9.83159 4.67558 9.62522C4.88381 9.43607 5.09856 9.1622 5.35063 8.84071L5.36786 8.81874C5.8843 8.16018 6.47334 7.34565 6.93486 6.52972C7.38902 5.72678 7.75 4.87117 7.75 4.14456C7.75 1.87894 6.03762 0 3.875 0ZM0.664286 4.14456C0.664286 2.1991 2.12429 0.664286 3.875 0.664286C5.62571 0.664286 7.08571 2.1991 7.08571 4.14456C7.08571 4.68773 6.80245 5.41453 6.35666 6.20267C5.91822 6.97781 5.35158 7.763 4.84513 8.40883C4.57102 8.75837 4.39054 8.98671 4.22892 9.13352C4.08153 9.26741 3.98314 9.30242 3.875 9.30242C3.76686 9.30242 3.66847 9.26741 3.52108 9.13352C3.35946 8.98671 3.17898 8.75837 2.90487 8.40883C2.39842 7.763 1.83178 6.97781 1.39334 6.20267C0.947546 5.41453 0.664286 4.68773 0.664286 4.14456Z" fill="var(--fill-0, white)"/>
</g>
</g>
</svg>
