<svg preserveAspectRatio="none" width="100%" height="100%" overflow="visible" style="display: block;" viewBox="0 0 25.5909 25.5909" fill="none" xmlns="http://www.w3.org/2000/svg">
<g id="Icons/24px/account">
<path id="Vector" d="M16.4611 13.4194C19.2735 13.4194 21.5539 15.6997 21.5539 18.5121C21.5536 20.6469 19.8225 22.3773 17.6876 22.3774H7.90151C5.76659 22.3774 4.03559 20.647 4.0353 18.5121C4.0353 15.6996 6.31559 13.4194 9.12807 13.4194H16.4611ZM9.12807 15.019C7.19893 15.019 5.6349 16.583 5.6349 18.5121C5.6352 19.7636 6.64993 20.7787 7.90151 20.7787H17.6876C18.9392 20.7787 19.9539 19.7636 19.9542 18.5121C19.9542 16.583 18.3902 15.019 16.4611 15.019H9.12807ZM12.7941 3.0258C15.371 3.02605 17.46 5.11581 17.4601 7.69279C17.4598 10.2696 15.3709 12.3586 12.7941 12.3588C10.2172 12.3586 8.12734 10.2697 8.12709 7.69279C8.12717 5.11577 10.2171 3.02598 12.7941 3.0258ZM12.7941 4.62541C11.1004 4.62559 9.72678 5.99911 9.7267 7.69279C9.72695 9.38633 11.1005 10.759 12.7941 10.7592C14.4876 10.7589 15.8602 9.38628 15.8605 7.69279C15.8604 5.99915 14.4877 4.62566 12.7941 4.62541Z" fill="var(--fill-0, white)"/>
</g>
</svg>
