<svg width="48" height="28" viewBox="0 0 48 28" fill="none" xmlns="http://www.w3.org/2000/svg">
<rect width="48" height="28" rx="14" fill="#9E9E9E"/>
<path d="M17.9282 14.2881C17.9282 14.1221 17.96 13.9658 18.0234 13.8193C18.0869 13.6777 18.187 13.541 18.3237 13.4092L25.6699 6.30469C25.8799 6.08984 26.1362 5.98242 26.439 5.98242C26.644 5.98242 26.832 6.03369 27.0029 6.13623C27.1689 6.23389 27.3032 6.36572 27.4058 6.53174C27.5034 6.69775 27.5522 6.88574 27.5522 7.0957C27.5522 7.39355 27.4375 7.65967 27.208 7.89404L20.5723 14.2954L27.208 20.6895C27.4375 20.9189 27.5522 21.1851 27.5522 21.4878C27.5522 21.6929 27.5034 21.8784 27.4058 22.0444C27.3032 22.2104 27.1689 22.3423 27.0029 22.4399C26.832 22.5376 26.644 22.5864 26.439 22.5864C26.1362 22.5864 25.8799 22.4814 25.6699 22.2715L18.3237 15.167C18.1919 15.0352 18.0942 14.8984 18.0308 14.7568C17.9673 14.6152 17.9331 14.459 17.9282 14.2881Z" fill="#000000"/>
</svg>
