<svg preserveAspectRatio="none" width="100%" height="100%" overflow="visible" style="display: block;" viewBox="0 0 25.5909 25.5909" fill="none" xmlns="http://www.w3.org/2000/svg">
<g id="Icons/24px/Info">
<path id="Vector" d="M12.7946 2.08069C18.7116 2.08069 23.5082 6.87765 23.5085 12.7946C23.5085 18.7117 18.7117 23.5084 12.7946 23.5084C6.87774 23.5081 2.08075 18.7115 2.08075 12.7946C2.081 6.87783 6.8779 2.08097 12.7946 2.08069ZM12.7946 3.6803C7.76124 3.68058 3.68061 7.76117 3.68036 12.7946C3.68036 17.8282 7.76108 21.9085 12.7946 21.9088C17.8284 21.9088 21.9089 17.8283 21.9089 12.7946C21.9086 7.76099 17.8282 3.6803 12.7946 3.6803ZM11.9518 11.5533C12.8587 11.5533 13.594 12.2882 13.5944 13.1949V17.3102C13.5942 17.7516 13.2361 18.109 12.7946 18.109C12.3534 18.1087 11.9951 17.7515 11.9948 17.3102V13.1949C11.9944 13.1715 11.9753 13.152 11.9518 13.152C11.5104 13.1517 11.152 12.7937 11.152 12.3522C11.1525 11.9111 11.5107 11.5537 11.9518 11.5533ZM12.7946 7.9762C13.4606 7.9762 14.0007 8.51627 14.0007 9.18225C14.0005 9.84808 13.4605 10.3873 12.7946 10.3873C12.1289 10.3872 11.5897 9.84797 11.5895 9.18225C11.5895 8.51638 12.1288 7.97637 12.7946 7.9762Z" fill="var(--fill-0, white)"/>
</g>
</svg>
