<svg preserveAspectRatio="none" width="100%" height="100%" overflow="visible" style="display: block;" viewBox="0 0 22.9252 18.66" fill="none" xmlns="http://www.w3.org/2000/svg">
<g id="Group">
<path id="Vector" d="M0.799716 9.33001C0.799716 5.30904 0.799716 3.29803 2.0494 2.0494C3.29909 0.800782 5.30904 0.799716 9.33001 0.799716H13.5952C17.6161 0.799716 19.6271 0.799716 20.8758 2.0494C22.1244 3.29909 22.1254 5.30904 22.1254 9.33001C22.1254 13.351 22.1254 15.362 20.8758 16.6106C19.6261 17.8592 17.6161 17.8603 13.5952 17.8603H9.33001C5.30904 17.8603 3.29803 17.8603 2.0494 16.6106C0.800782 15.3609 0.799716 13.351 0.799716 9.33001Z" stroke="var(--stroke-0, white)" stroke-width="1.59943"/>
<path id="Vector_2" d="M9.33001 13.5958H5.06486M13.5952 13.5958H11.9957M0.799716 7.19804H22.1254" stroke="var(--stroke-0, white)" stroke-width="1.59943" stroke-linecap="round"/>
</g>
</svg>
