<svg preserveAspectRatio="none" width="100%" height="100%" overflow="visible" style="display: block;" viewBox="0 0 20.7521 22.6167" fill="none" xmlns="http://www.w3.org/2000/svg">
<g id="Shield Cross">
<g id="Vector">
<path d="M13.4585 10.0249C13.7708 9.71255 13.7708 9.20619 13.4585 8.89389C13.1462 8.58158 12.6398 8.58158 12.3275 8.89389L10.6311 10.5903L8.93462 8.89389C8.62231 8.58158 8.11596 8.58158 7.80365 8.89389C7.49134 9.2062 7.49134 9.71255 7.80365 10.0249L9.5001 11.7213L7.80365 13.4178C7.49134 13.7301 7.49134 14.2364 7.80365 14.5487C8.11596 14.861 8.62231 14.861 8.93462 14.5487L10.6311 12.8523L12.3275 14.5487C12.6398 14.861 13.1462 14.861 13.4585 14.5487C13.7708 14.2364 13.7708 13.7301 13.4585 13.4178L11.762 11.7213L13.4585 10.0249Z" fill="var(--fill-0, #FAFAFA)"/>
<path fill-rule="evenodd" clip-rule="evenodd" d="M7.77364 0C6.12965 0 4.79693 1.33272 4.79693 2.97672C4.79693 3.73737 4.18029 4.354 3.41964 4.354H3.0903C1.40977 4.354 -0.0872048 5.65423 0.00397058 7.46026C0.112224 9.60457 0.588484 12.9467 2.32563 16.1124C2.81217 16.9991 3.46195 17.8701 4.16438 18.6817L4.21727 18.7428C5.22775 19.9104 6.07029 20.8839 6.97607 21.5474C7.95032 22.2612 8.99014 22.6167 10.3724 22.6167C11.7546 22.6167 12.7944 22.2612 13.7687 21.5474C14.6744 20.8839 15.517 19.9104 16.5275 18.7428L16.5803 18.6817C17.2828 17.8701 17.9326 16.9991 18.4191 16.1124C20.214 12.8414 20.6616 9.14518 20.7498 6.84088C20.8187 5.04352 19.3324 3.732 17.6425 3.732H17.0141C16.4252 3.732 15.9478 3.25461 15.9478 2.66572C15.9478 1.19348 14.7543 0 13.2821 0H7.77364ZM6.39636 2.97672C6.39636 2.21606 7.01299 1.59943 7.77364 1.59943H13.2821C13.871 1.59943 14.3484 2.07682 14.3484 2.66572C14.3484 4.13795 15.5419 5.33143 17.0141 5.33143H17.6425C18.5357 5.33143 19.1816 5.99584 19.1516 6.77965C19.0672 8.98126 18.638 12.3888 17.0169 15.343C16.6022 16.0988 16.0279 16.876 15.371 17.6349C14.2939 18.8793 13.5666 19.7128 12.8234 20.2572C12.133 20.763 11.4267 21.0173 10.3724 21.0173C9.31802 21.0173 8.61176 20.763 7.92129 20.2572C7.17811 19.7128 6.45081 18.8793 5.37373 17.6349C4.71681 16.876 4.14255 16.0988 3.72783 15.343C2.15134 12.47 1.70314 9.39568 1.60137 7.37962C1.56264 6.61257 2.19447 5.95343 3.0903 5.95343H3.41964C5.06363 5.95343 6.39636 4.62071 6.39636 2.97672Z" fill="var(--fill-0, #FAFAFA)"/>
</g>
</g>
</svg>
