<svg preserveAspectRatio="none" width="100%" height="100%" overflow="visible" style="display: block;" viewBox="0 0 24.5246 25.5909" fill="none" xmlns="http://www.w3.org/2000/svg">
<g id="Icons/24px/Security">
<path id="Rectangle 41334" d="M4.99239 7.1752L12.7959 3.52824L20.5994 7.1752V11.6985C20.5994 14.0907 20.5994 15.2867 20.2663 16.3339C19.7682 17.8999 18.7376 19.2687 17.3327 20.2301C16.631 20.7103 15.7844 21.0531 14.4015 21.5263C13.8213 21.7249 13.5312 21.8241 13.2165 21.8659C12.9461 21.9017 12.6457 21.9017 12.3752 21.8659C12.0605 21.8241 11.7704 21.7249 11.1902 21.5263C9.80731 21.0531 8.96074 20.7103 8.25904 20.2301C6.85419 19.2687 5.82357 17.8999 5.32547 16.3339C4.99239 15.2867 4.99239 14.0907 4.99239 11.6985V7.1752Z" stroke="var(--stroke-0, white)" stroke-width="1.59943" stroke-linecap="round" stroke-linejoin="round"/>
<path id="Vector 22249" d="M9.82313 12.4618L12.1015 14.7399L15.9882 10.8531" stroke="var(--stroke-0, white)" stroke-width="1.59943" stroke-linecap="round" stroke-linejoin="round"/>
</g>
</svg>
