<svg preserveAspectRatio="none" width="100%" height="100%" overflow="visible" style="display: block;" viewBox="0 0 22.9248 22.925" fill="none" xmlns="http://www.w3.org/2000/svg">
<g id="Message 33">
<g id="Vector">
<path fill-rule="evenodd" clip-rule="evenodd" d="M19.5512 8.00887C19.1941 6.13333 18.2901 4.34065 16.8407 2.88945C12.993 -0.96315 6.75412 -0.96315 2.90637 2.88945C1.73259 4.06471 0.695986 5.80438 0.242638 7.73579C-0.213457 9.6789 -0.0870055 11.8616 1.14489 13.8463C1.20796 13.948 1.24698 14.0109 1.27454 14.058C1.28724 14.0798 1.29393 14.0922 1.29675 14.0975C1.29932 14.1043 1.3009 14.109 1.30183 14.1119C1.30181 14.1155 1.30167 14.1214 1.30108 14.1305C1.30032 14.1347 1.29855 14.1439 1.29497 14.1598C1.28586 14.2001 1.27199 14.2541 1.2473 14.3495L1.24014 14.3771C1.09865 14.9237 0.982364 15.3729 0.914009 15.7358C0.845202 16.1011 0.805393 16.4699 0.878583 16.83C1.08728 17.8567 1.88894 18.66 2.91573 18.8692C3.27593 18.9426 3.64469 18.9027 4.00967 18.8338C4.37226 18.7653 4.82098 18.6488 5.36678 18.5072L5.39445 18.5C5.48968 18.4753 5.54357 18.4614 5.58386 18.4523C5.59953 18.4487 5.60868 18.447 5.61291 18.4462C5.62127 18.4456 5.62698 18.4455 5.63055 18.4454C5.63349 18.4464 5.63793 18.4479 5.64415 18.4502C5.64953 18.4531 5.66203 18.4598 5.68394 18.4726C5.7314 18.5003 5.79488 18.5395 5.89705 18.6027C6.55806 19.0117 7.24604 19.2976 7.94297 19.4786C8.20152 19.8387 8.49227 20.1824 8.81504 20.5056C9.76605 21.4578 11.2186 22.322 12.8366 22.7095C14.4658 23.0997 16.322 23.018 18.0016 21.9787C18.083 21.9283 18.1328 21.8976 18.1695 21.8761C18.1988 21.883 18.2391 21.8934 18.3058 21.9107L18.3327 21.9177C18.7786 22.0335 19.1521 22.1304 19.4555 22.1877C19.7612 22.2454 20.0867 22.2825 20.4107 22.2165C21.3119 22.0329 22.0154 21.3279 22.1985 20.4269C22.2643 20.1031 22.2273 19.7776 22.1697 19.4716C22.1125 19.168 22.0157 18.7941 21.9001 18.3476L21.8932 18.3207C21.8757 18.2531 21.8653 18.2127 21.8583 18.1833C21.8797 18.1468 21.9103 18.0974 21.9608 18.0161C22.999 16.3434 23.1036 14.5059 22.7213 12.8772C22.3418 11.2603 21.4747 9.8045 20.4901 8.81866C20.1934 8.52162 19.8794 8.25164 19.5512 8.00887ZM15.7091 4.01971C12.4861 0.792672 7.26103 0.792672 4.03805 4.01971C3.06775 4.99122 2.18301 6.46844 1.79975 8.10128C1.41922 9.72243 1.54089 11.4514 2.50384 13.0029C2.51295 13.0176 2.52219 13.0324 2.5315 13.0473C2.62331 13.1947 2.72218 13.3534 2.77951 13.4975C2.8812 13.7532 2.91641 13.9846 2.89539 14.2589C2.88358 14.4131 2.84214 14.572 2.80575 14.7116C2.80234 14.7247 2.79898 14.7376 2.79569 14.7503C2.64528 15.3313 2.543 15.7282 2.48581 16.0318C2.42792 16.3392 2.43568 16.4608 2.44596 16.5114C2.52703 16.9102 2.83809 17.2211 3.23508 17.302C3.28504 17.3122 3.40603 17.32 3.71292 17.2621C4.0161 17.2048 4.41233 17.1025 4.99268 16.9519C5.00539 16.9486 5.01828 16.9452 5.03135 16.9418C5.17063 16.9054 5.32941 16.8639 5.48317 16.852C5.75725 16.8308 5.98715 16.8656 6.24266 16.9669C6.38646 17.0239 6.5457 17.1228 6.69378 17.2148C6.70886 17.2241 6.72382 17.2334 6.73863 17.2426C6.76778 17.2606 6.79698 17.2783 6.82625 17.2958C5.86206 14.4169 6.52442 11.1122 8.81504 8.81866C11.189 6.44175 14.6482 5.8154 17.5947 6.9385C17.1935 5.87449 16.5651 4.87683 15.7091 4.01971ZM18.3714 9.13297C15.7835 7.38278 12.2374 7.6554 9.94672 9.94892C7.67492 12.2236 7.38774 15.7355 9.08833 18.3219C9.33289 18.6938 9.6189 19.0471 9.94672 19.3753C10.6893 20.1188 11.8793 20.8356 13.2091 21.1541C14.5278 21.4699 15.9248 21.3829 17.16 20.6186C17.1723 20.611 17.1849 20.6032 17.1977 20.5952C17.3167 20.5212 17.4596 20.4324 17.5907 20.3804C17.8211 20.289 18.0319 20.2571 18.2791 20.2762C18.4192 20.2871 18.5627 20.3247 18.675 20.3541C18.6862 20.357 18.697 20.3599 18.7076 20.3626C19.1874 20.4871 19.5083 20.57 19.7522 20.616C19.9998 20.6628 20.0776 20.6521 20.0914 20.6493C20.3627 20.594 20.5756 20.3814 20.6311 20.1084C20.634 20.094 20.6446 20.0157 20.5979 19.7676C20.5519 19.5233 20.4691 19.2019 20.3448 18.7215C20.3421 18.711 20.3392 18.7001 20.3363 18.6889C20.3069 18.5764 20.2693 18.4327 20.2586 18.2923C20.2396 18.0449 20.2719 17.8328 20.3636 17.6023C20.4159 17.4709 20.5047 17.3284 20.5785 17.2101C20.5865 17.1973 20.5943 17.1848 20.6018 17.1727C21.3711 15.9332 21.4709 14.5494 21.1642 13.2427C20.8548 11.9244 20.1395 10.731 19.3584 9.94892C19.0498 9.6399 18.719 9.36802 18.3714 9.13297Z" fill="var(--fill-0, #FAFAFA)"/>
<path d="M12.5287 14.6614C12.5287 15.2503 12.0513 15.7277 11.4624 15.7277C10.8735 15.7277 10.3961 15.2503 10.3961 14.6614C10.3961 14.0725 10.8735 13.5952 11.4624 13.5952C12.0513 13.5952 12.5287 14.0725 12.5287 14.6614Z" fill="#FAFAFA"/>
<path d="M15.7276 14.6614C15.7276 15.2503 15.2502 15.7277 14.6613 15.7277C14.0724 15.7277 13.595 15.2503 13.595 14.6614C13.595 14.0725 14.0724 13.5952 14.6613 13.5952C15.2502 13.5952 15.7276 14.0725 15.7276 14.6614Z" fill="#FAFAFA"/>
<path d="M18.9264 14.6614C18.9264 15.2503 18.449 15.7277 17.8601 15.7277C17.2712 15.7277 16.7939 15.2503 16.7939 14.6614C16.7939 14.0725 17.2712 13.5952 17.8601 13.5952C18.449 13.5952 18.9264 14.0725 18.9264 14.6614Z" fill="#FAFAFA"/>
</g>
</g>
</svg>
