<svg preserveAspectRatio="none" width="100%" height="100%" overflow="visible" style="display: block;" viewBox="0 0 22.9252 18.66" fill="none" xmlns="http://www.w3.org/2000/svg">
<g id="Ticket 1">
<g id="Vector">
<path fill-rule="evenodd" clip-rule="evenodd" d="M5.53877 0C2.47979 0 0 2.47979 0 5.53877C0 6.42563 0.508598 7.23391 1.30813 7.61769L1.8278 7.86713C3.05513 8.45625 3.05513 10.2038 1.8278 10.7929L1.30813 11.0423C0.508599 11.4261 0 12.2344 0 13.1212C0 16.1802 2.47979 18.66 5.53877 18.66H17.3864C20.4454 18.66 22.9252 16.1802 22.9252 13.1212C22.9252 12.2344 22.4166 11.4261 21.617 11.0423L21.0974 10.7929C19.87 10.2038 19.87 8.45625 21.0974 7.86713L21.617 7.61769C22.4166 7.23391 22.9252 6.42563 22.9252 5.53877C22.9252 2.47979 20.4454 0 17.3864 0H5.53877ZM1.59943 5.53877C1.59943 3.36313 3.36313 1.59943 5.53877 1.59943H17.3864C19.562 1.59943 21.3257 3.36313 21.3257 5.53877C21.3257 5.81051 21.1699 6.05817 20.9249 6.17576L20.4052 6.42521C17.9682 7.595 17.9682 11.065 20.4052 12.2348L20.9249 12.4843C21.1699 12.6018 21.3257 12.8495 21.3257 13.1212C21.3257 15.2969 19.562 17.0606 17.3864 17.0606H5.53877C3.36313 17.0606 1.59943 15.2969 1.59943 13.1212C1.59943 12.8495 1.75527 12.6018 2.00025 12.4843L2.51992 12.2348C4.95699 11.065 4.95699 7.595 2.51992 6.42521L2.00025 6.17576C1.75527 6.05817 1.59943 5.81051 1.59943 5.53877Z" fill="var(--fill-0, #FAFAFA)"/>
<path d="M14.3949 1.59943C14.3949 1.59943 14.0577 1.59943 13.616 1.59943C13.1743 1.59943 12.7954 1.59943 12.7954 1.59943V1.93709C12.7954 2.37876 13.1535 2.7368 13.5952 2.7368C14.0368 2.7368 14.3949 2.37876 14.3949 1.93709V1.59943Z" fill="var(--fill-0, #FAFAFA)"/>
<path d="M14.3949 5.34921C14.3949 4.90753 14.0368 4.54949 13.5952 4.54949C13.1535 4.54949 12.7954 4.90753 12.7954 5.34921V7.62395C12.7954 8.06562 13.1535 8.42367 13.5952 8.42367C14.0368 8.42367 14.3949 8.06562 14.3949 7.62395V5.34921Z" fill="var(--fill-0, #FAFAFA)"/>
<path d="M14.3949 11.0361C14.3949 10.5944 14.0368 10.2364 13.5952 10.2364C13.1535 10.2364 12.7954 10.5944 12.7954 11.0361V13.3108C12.7954 13.7525 13.1535 14.1105 13.5952 14.1105C14.0368 14.1105 14.3949 13.7525 14.3949 13.3108V11.0361Z" fill="var(--fill-0, #FAFAFA)"/>
<path d="M14.3949 16.7229C14.3949 16.2813 14.0368 15.9232 13.5952 15.9232C13.1535 15.9232 12.7954 16.2813 12.7954 16.7229V17.0606H13.5952H14.3949V16.7229Z" fill="var(--fill-0, #FAFAFA)"/>
</g>
</g>
</svg>
